<svg xmlns="http://www.w3.org/2000/svg" width="1600" height="900" viewBox="0 0 1600 900">
  <defs>
    <filter id="shadow" x="-20%" y="-20%" width="140%" height="140%">
      <feDropShadow dx="0" dy="8" stdDeviation="10" flood-color="#002D58" flood-opacity="0.14"/>
    </filter>
    <marker id="arrow" markerWidth="12" markerHeight="12" refX="10" refY="6" orient="auto">
      <path d="M0,0 L12,6 L0,12 z" fill="#FEC82F"/>
    </marker>
  </defs>
  <rect width="1600" height="900" fill="#F7F9FC"/>
  <rect width="1600" height="12" fill="#FEC82F"/>
  <text x="70" y="72" font-family="Montserrat" font-size="18" font-weight="700" fill="#CE1126" letter-spacing="4">ARQUITECTURA DEL SISTEMA</text>
  <text x="70" y="130" font-family="Montserrat" font-size="42" font-weight="800" fill="#002D58">Observatorio Anticorrupción de Colombia</text>
  <text x="70" y="170" font-family="Montserrat" font-size="21" fill="#5A677D">Monorepo · APIs desacopladas · inteligencia híbrida Bun + Python · experiencia multicanal</text>

  <g filter="url(#shadow)">
    <rect x="70" y="235" width="285" height="465" rx="20" fill="#FFFFFF" stroke="#005A9C" stroke-width="3"/>
    <rect x="70" y="235" width="285" height="72" rx="20" fill="#005A9C"/>
    <rect x="70" y="287" width="285" height="20" fill="#005A9C"/>
    <text x="212" y="278" text-anchor="middle" font-family="Montserrat" font-size="20" font-weight="700" fill="#FFFFFF">1 · FUENTES</text>
    <circle cx="105" cy="365" r="9" fill="#005A9C"/><text x="130" y="373" font-family="Montserrat" font-size="19" font-weight="700" fill="#172033">SECOP II · Socrata</text>
    <circle cx="105" cy="440" r="9" fill="#CE1126"/><text x="130" y="448" font-family="Montserrat" font-size="18" fill="#172033">CGR · SIRI · FGN</text>
    <circle cx="105" cy="515" r="9" fill="#16865A"/><text x="130" y="523" font-family="Montserrat" font-size="18" fill="#172033">Multas SECOP</text>
    <circle cx="105" cy="590" r="9" fill="#FEC82F"/><text x="130" y="598" font-family="Montserrat" font-size="18" fill="#172033">Obras inconclusas</text>
    <text x="212" y="665" text-anchor="middle" font-family="Montserrat" font-size="15" fill="#5A677D">Datos abiertos y registros públicos</text>
  </g>

  <g filter="url(#shadow)">
    <rect x="430" y="235" width="320" height="465" rx="20" fill="#FFF9DF" stroke="#FEC82F" stroke-width="3"/>
    <rect x="430" y="235" width="320" height="72" rx="20" fill="#FEC82F"/>
    <rect x="430" y="287" width="320" height="20" fill="#FEC82F"/>
    <text x="590" y="278" text-anchor="middle" font-family="Montserrat" font-size="20" font-weight="700" fill="#002D58">2 · APIs BUN + ELYSIA</text>
    <text x="590" y="360" text-anchor="middle" font-family="Montserrat" font-size="25" font-weight="800" fill="#002D58">API principal</text>
    <text x="590" y="395" text-anchor="middle" font-family="Montserrat" font-size="17" fill="#172033">SECOP · scoring · dashboard · chat</text>
    <line x1="470" y1="430" x2="710" y2="430" stroke="#D7BE55"/>
    <text x="590" y="480" text-anchor="middle" font-family="Montserrat" font-size="25" font-weight="800" fill="#002D58">API Anticorrupción</text>
    <text x="590" y="515" text-anchor="middle" font-family="Montserrat" font-size="17" fill="#172033">Búsqueda · perfiles · estadísticas</text>
    <line x1="470" y1="550" x2="710" y2="550" stroke="#D7BE55"/>
    <text x="590" y="600" text-anchor="middle" font-family="Montserrat" font-size="18" font-weight="700" fill="#16865A">SQLite · WAL · FTS5</text>
    <text x="590" y="637" text-anchor="middle" font-family="Montserrat" font-size="16" fill="#5A677D">Caché · validación · coalescencia</text>
  </g>

  <g filter="url(#shadow)">
    <rect x="825" y="235" width="310" height="465" rx="20" fill="#EAF7F1" stroke="#16865A" stroke-width="3"/>
    <rect x="825" y="235" width="310" height="72" rx="20" fill="#16865A"/>
    <rect x="825" y="287" width="310" height="20" fill="#16865A"/>
    <text x="980" y="278" text-anchor="middle" font-family="Montserrat" font-size="20" font-weight="700" fill="#FFFFFF">3 · INTELIGENCIA</text>
    <text x="980" y="365" text-anchor="middle" font-family="Montserrat" font-size="23" font-weight="800" fill="#002D58">9 reglas explicables</text>
    <text x="980" y="415" text-anchor="middle" font-family="Montserrat" font-size="18" fill="#172033">Semáforo y evidencia</text>
    <line x1="865" y1="455" x2="1095" y2="455" stroke="#9BCDB4"/>
    <rect x="875" y="490" width="210" height="105" rx="14" fill="#002D58"/>
    <text x="980" y="530" text-anchor="middle" font-family="Montserrat" font-size="18" font-weight="700" fill="#FEC82F">PYTHON WORKER</text>
    <text x="980" y="560" text-anchor="middle" font-family="Montserrat" font-size="16" fill="#FFFFFF">pandas · scikit-learn</text>
    <text x="980" y="585" text-anchor="middle" font-family="Montserrat" font-size="15" fill="#FFFFFF">Isolation Forest</text>
    <text x="980" y="645" text-anchor="middle" font-family="Montserrat" font-size="17" font-weight="700" fill="#16865A">Hive Agents + herramientas</text>
  </g>

  <g filter="url(#shadow)">
    <rect x="1210" y="235" width="320" height="465" rx="20" fill="#FFFFFF" stroke="#CE1126" stroke-width="3"/>
    <rect x="1210" y="235" width="320" height="72" rx="20" fill="#CE1126"/>
    <rect x="1210" y="287" width="320" height="20" fill="#CE1126"/>
    <text x="1370" y="278" text-anchor="middle" font-family="Montserrat" font-size="20" font-weight="700" fill="#FFFFFF">4 · EXPERIENCIA</text>
    <text x="1370" y="365" text-anchor="middle" font-family="Montserrat" font-size="23" font-weight="800" fill="#002D58">React + Vite</text>
    <text x="1370" y="420" text-anchor="middle" font-family="Montserrat" font-size="18" fill="#172033">Dashboard y filtros</text>
    <text x="1370" y="475" text-anchor="middle" font-family="Montserrat" font-size="18" fill="#172033">Alertas y perfiles</text>
    <text x="1370" y="530" text-anchor="middle" font-family="Montserrat" font-size="18" fill="#172033">Asistente virtual</text>
    <text x="1370" y="585" text-anchor="middle" font-family="Montserrat" font-size="18" fill="#172033">Exportación CSV</text>
    <text x="1370" y="650" text-anchor="middle" font-family="Montserrat" font-size="16" fill="#5A677D">Ciudadanía · analistas · APIs externas</text>
  </g>

  <line x1="355" y1="470" x2="420" y2="470" stroke="#FEC82F" stroke-width="8" marker-end="url(#arrow)"/>
  <line x1="750" y1="470" x2="815" y2="470" stroke="#FEC82F" stroke-width="8" marker-end="url(#arrow)"/>
  <line x1="1135" y1="470" x2="1200" y2="470" stroke="#FEC82F" stroke-width="8" marker-end="url(#arrow)"/>
  <line x1="1370" y1="735" x2="210" y2="735" stroke="#002D58" stroke-width="4" marker-end="url(#arrow)"/>
  <text x="790" y="770" text-anchor="middle" font-family="Montserrat" font-size="17" font-weight="700" fill="#002D58">Respuesta explicable · fuente · fecha · revisión humana</text>

  <rect x="70" y="810" width="1460" height="48" rx="12" fill="#002D58"/>
  <text x="800" y="841" text-anchor="middle" font-family="Montserrat" font-size="17" font-weight="700" fill="#FFFFFF">MONOREPO · WORKSPACES · DOCKER · PRUEBAS UNITARIAS Y E2E · VOLÚMENES PERSISTENTES</text>
</svg>
